<svg width="244" height="244" viewBox="0 0 244 244" fill="none" xmlns="http://www.w3.org/2000/svg">
<mask id="mask0_6_19" style="mask-type:alpha" maskUnits="userSpaceOnUse" x="0" y="0" width="244" height="244">
<rect width="244" height="244" fill="#D9D9D9"/>
</mask>
<g mask="url(#mask0_6_19)">
<path d="M122 136.233L72.1833 186.05C70.3194 187.914 67.9472 188.846 65.0667 188.846C62.1861 188.846 59.8139 187.914 57.95 186.05C56.0861 184.186 55.1542 181.814 55.1542 178.933C55.1542 176.053 56.0861 173.681 57.95 171.817L107.767 122L57.95 72.1833C56.0861 70.3194 55.1542 67.9472 55.1542 65.0667C55.1542 62.1861 56.0861 59.8139 57.95 57.95C59.8139 56.0861 62.1861 55.1542 65.0667 55.1542C67.9472 55.1542 70.3194 56.0861 72.1833 57.95L122 107.767L171.817 57.95C173.681 56.0861 176.053 55.1542 178.933 55.1542C181.814 55.1542 184.186 56.0861 186.05 57.95C187.914 59.8139 188.846 62.1861 188.846 65.0667C188.846 67.9472 187.914 70.3194 186.05 72.1833L136.233 122L186.05 171.817C187.914 173.681 188.846 176.053 188.846 178.933C188.846 181.814 187.914 184.186 186.05 186.05C184.186 187.914 181.814 188.846 178.933 188.846C176.053 188.846 173.681 187.914 171.817 186.05L122 136.233Z" fill="white"/>
</g>
</svg>
