<svg width="244" height="244" viewBox="0 0 244 244" fill="none" xmlns="http://www.w3.org/2000/svg">
<mask id="mask0_6_31" style="mask-type:alpha" maskUnits="userSpaceOnUse" x="0" y="0" width="244" height="244">
<rect width="244" height="244" fill="#D9D9D9"/>
</mask>
<g mask="url(#mask0_6_31)">
<path d="M122 152.246C120.644 152.246 119.331 151.992 118.06 151.483C116.79 150.975 115.731 150.297 114.883 149.45L68.1167 102.683C66.2528 100.819 65.3208 98.4472 65.3208 95.5667C65.3208 92.6861 66.2528 90.3139 68.1167 88.45C69.9806 86.5861 72.3528 85.6542 75.2333 85.6542C78.1139 85.6542 80.4861 86.5861 82.35 88.45L122 128.1L161.65 88.45C163.514 86.5861 165.886 85.6542 168.767 85.6542C171.647 85.6542 174.019 86.5861 175.883 88.45C177.747 90.3139 178.679 92.6861 178.679 95.5667C178.679 98.4472 177.747 100.819 175.883 102.683L129.117 149.45C128.1 150.467 126.999 151.187 125.813 151.61C124.626 152.034 123.356 152.246 122 152.246Z" fill="white"/>
</g>
</svg>
